<svg width="13" height="13" viewBox="0 0 13 13" fill="none" xmlns="http://www.w3.org/2000/svg">
<path d="M12.9999 2.27091C12.9951 2.66955 12.7788 3.16649 12.3558 3.57605C10.0956 5.76116 7.83464 7.94549 5.57204 10.1283C5.50988 10.1883 5.42836 10.2367 5.34764 10.2702C3.86641 10.8803 2.38358 11.488 0.900741 12.0957C0.688446 12.1831 0.559294 12.1667 0.432563 12.0396C0.311482 11.9179 0.301795 11.7852 0.40431 11.584C1.03797 10.3397 1.67243 9.09617 2.30609 7.85188C2.45219 7.56557 2.59184 7.27693 2.74117 6.99219C2.77911 6.92042 2.834 6.85411 2.89373 6.79716C5.03363 4.73765 7.17515 2.67969 9.31586 0.620962C9.93983 0.0210513 10.8608 -0.162276 11.6535 0.156012C12.4809 0.487562 12.9975 1.23023 13.0007 2.27325L12.9999 2.27091ZM10.7922 3.47776C10.7761 3.39584 10.7608 3.25698 10.722 3.12436C10.6356 2.82792 10.6009 2.82246 10.3798 3.03465C8.78714 4.56368 7.19452 6.09115 5.60352 7.62174C5.56639 7.65763 5.55267 7.71536 5.52764 7.76294C5.57365 7.77933 5.61886 7.80663 5.66567 7.81053C5.9151 7.83393 6.05717 8.01102 6.01116 8.24896C5.99179 8.35037 5.96273 8.45023 5.9482 8.55164C5.94335 8.58519 5.96353 8.632 5.98936 8.65384C6.00389 8.66632 6.05636 8.64838 6.08623 8.63356C6.11367 8.61951 6.13305 8.59221 6.15565 8.57037C6.71827 8.02662 7.28089 7.48288 7.84271 6.93836C8.69996 6.10831 9.55802 5.27983 10.412 4.44744C10.6687 4.19702 10.7729 3.88186 10.793 3.47776H10.7922ZM9.36994 2.11879C8.90176 2.14297 8.54175 2.34892 8.22371 2.65785C7.33659 3.51754 6.44301 4.37021 5.55267 5.226C5.09417 5.66677 4.63568 6.10675 4.17961 6.55064C4.14006 6.58965 4.12311 6.64971 4.09566 6.70042C4.15378 6.7168 4.21109 6.74177 4.27082 6.74723C4.35558 6.75503 4.44195 6.74645 4.52751 6.74801C4.75918 6.75347 4.86412 6.84006 4.91336 7.05928C4.9408 7.18332 4.9965 7.20126 5.09659 7.11233C5.19507 7.02573 5.29113 6.93602 5.38557 6.84474C6.34696 5.91874 7.30753 4.99196 8.26891 4.06674C8.82588 3.5308 9.38447 2.99798 9.94144 2.46204C10.0601 2.34814 10.0528 2.29744 9.89382 2.24751C9.72269 2.19368 9.5451 2.16014 9.36994 2.11801V2.11879ZM3.74937 7.44856C3.6743 7.44856 3.59923 7.4548 3.52497 7.447C3.41196 7.43529 3.34173 7.4704 3.27877 7.56947C2.81059 8.30903 2.33757 9.04468 1.86212 9.77955C1.79513 9.8833 1.82903 9.93245 1.92589 9.9855C2.23747 10.1556 2.4756 10.3935 2.61363 10.7157C2.65883 10.8218 2.7105 10.8436 2.81866 10.7851C3.50236 10.4138 4.1901 10.0479 4.87461 9.67735C4.91659 9.65473 4.96502 9.61104 4.97471 9.5697C5.04655 9.26857 5.1079 8.96511 5.17732 8.6632C5.20395 8.54774 5.15391 8.51498 5.04413 8.5181C4.88914 8.522 4.73416 8.52122 4.57918 8.5181C4.36042 8.5142 4.21593 8.38938 4.19414 8.18031C4.18365 8.07811 4.18849 7.97358 4.18849 7.8706C4.18849 7.58612 4.04238 7.4457 3.75018 7.44934L3.74937 7.44856ZM12.271 2.22176C12.271 1.6671 12.1056 1.30747 11.7657 1.03598C11.1135 0.514866 10.2312 0.599119 9.61937 1.32541C9.56609 1.3886 9.58143 1.44009 9.66941 1.46037C9.71058 1.46973 9.75255 1.47909 9.79453 1.48689C10.6106 1.6398 11.2846 2.27871 11.4582 3.06429C11.4703 3.11968 11.4767 3.17663 11.4921 3.23124C11.5147 3.31003 11.5696 3.33421 11.6342 3.27726C11.995 2.95898 12.2848 2.60402 12.271 2.22254V2.22176Z" fill="white"/>
</svg>
