<svg width="202" height="108" viewBox="0 0 202 108" fill="none" xmlns="http://www.w3.org/2000/svg">
<path d="M12.4421 78.8003H0V107.533H6.64141V99.6119H12.4421C20.1204 99.6119 24.9123 95.614 24.9123 89.2061C24.9123 82.7982 20.1204 78.8003 12.4421 78.8003ZM12.0685 94.1848H6.64141V84.1994H12.0685C16.1225 84.1994 18.1868 86.0489 18.1868 89.2061C18.1868 92.3633 16.1225 94.1848 12.0685 94.1848Z" fill="white"/>
<path d="M43.9491 78.2959C34.8978 78.2959 28.219 84.6197 28.219 93.148C28.219 101.676 34.8884 108 43.9491 108C53.0098 108 59.6793 101.723 59.6793 93.148C59.6793 84.573 52.9818 78.2959 43.9491 78.2959ZM43.9491 102.339C38.8116 102.339 34.9725 98.6031 34.9725 93.148C34.9725 87.6929 38.8116 83.9565 43.9491 83.9565C49.0867 83.9565 52.9538 87.6929 52.9538 93.148C52.9538 98.6031 49.0867 102.339 43.9491 102.339Z" fill="white"/>
<path d="M69.6553 78.8003H63.0139V107.533H84.059V102.106H69.6553V78.8003Z" fill="white"/>
<path d="M103.124 78.2959C94.0726 78.2959 87.4219 84.6197 87.4219 93.148C87.4219 101.676 94.0633 108 103.124 108C112.185 108 118.854 101.723 118.854 93.148C118.854 84.573 112.157 78.2959 103.124 78.2959ZM103.124 102.339C98.0145 102.339 94.1474 98.6031 94.1474 93.148C94.1474 87.6929 98.0145 83.9565 103.124 83.9565C108.233 83.9565 112.129 87.6929 112.129 93.148C112.129 98.6031 108.262 102.339 103.124 102.339Z" fill="white"/>
<path d="M144.43 96.2211L130.166 78.8003H124.655V107.533H131.221V90.0841L145.55 107.533H150.996V78.8003H144.43V96.2211Z" fill="white"/>
<path d="M163.438 78.8003H156.797V107.533H163.438V78.8003Z" fill="white"/>
<path d="M188.603 78.8003H182.036L169.249 107.533H176.058L178.599 101.368H191.947L194.488 107.533H201.456L188.612 78.8003H188.603ZM180.738 96.3332L185.296 85.3203L189.855 96.3332H180.747H180.738Z" fill="white"/>
<path fill-rule="evenodd" clip-rule="evenodd" d="M96.4861 0C80.7543 0 68 12.748 68 28.5C68 44.2519 80.7543 57 96.4861 57C112.218 57 125 44.2241 125 28.5C125 12.7759 112.246 0 96.4861 0ZM96.4861 4.56148C107.311 4.56148 116.429 11.7282 119.407 21.5558H105.651C105.539 21.5558 105.465 21.5558 105.354 21.5836C105.057 21.5836 104.788 21.6114 104.491 21.667C101.439 22.177 99.0833 24.6895 98.8143 27.8232C98.7865 28.0086 98.8978 28.2033 99.0833 28.2868C99.2688 28.3702 99.4636 28.3146 99.5935 28.1755C100.836 26.9053 102.59 26.1265 104.482 26.1265H119.351C119.351 28.6669 117.301 30.688 114.787 30.688H106.792C106.523 30.688 106.281 30.7158 106.003 30.7437C103.925 30.9013 102.005 31.6615 100.465 32.9039C99.6028 33.5529 98.8421 34.3595 98.2485 35.2773C98.1928 35.333 98.1372 35.3886 98.1094 35.4628C97.627 36.223 97.2189 37.0852 96.9499 37.9753C96.8942 38.1885 96.7087 38.3276 96.4861 38.3276C96.3006 38.3276 96.1058 38.1885 96.0501 37.9753C95.7811 37.0852 95.373 36.223 94.8906 35.4628C94.8628 35.3793 94.8072 35.3237 94.7515 35.2773C94.1579 34.3595 93.3972 33.5529 92.5346 32.9039C90.9948 31.6615 89.0747 30.9013 86.9969 30.7437C86.7279 30.7158 86.4867 30.688 86.2177 30.688H78.222C75.7082 30.688 73.6583 28.6576 73.6583 26.1265H88.5274C90.4197 26.1265 92.1728 26.9146 93.4158 28.1755C93.5549 28.3146 93.7404 28.3609 93.926 28.2868C94.1115 28.2033 94.2228 28.0179 94.195 27.8232C93.926 24.6895 91.5421 22.177 88.5181 21.667C88.2213 21.6114 87.9523 21.5836 87.6555 21.5836C87.5442 21.5558 87.47 21.5558 87.3587 21.5558H73.5933C76.5709 11.7282 85.689 4.56148 96.4861 4.56148ZM96.4861 52.4107C84.9469 52.4107 75.3186 44.2519 73.0646 33.386C73.2594 33.525 73.4449 33.6734 73.649 33.7939C74.6786 34.4429 75.8381 34.8972 77.081 35.1197C77.2666 35.1475 77.4892 35.2032 77.7025 35.2032C78.055 35.2588 78.4353 35.2866 78.7878 35.2866H83.3515C86.7279 35.2866 89.7797 36.668 91.9502 38.9024C94.4083 41.4149 95.1133 44.7897 96.0594 48.0625C96.1151 48.2479 96.2727 48.387 96.4954 48.387C96.718 48.387 96.8757 48.2479 96.9313 48.0625C97.9053 44.8175 98.6381 41.4149 101.068 38.9024C103.23 36.6587 106.281 35.2866 109.667 35.2866H114.231C114.583 35.2866 114.964 35.2588 115.316 35.2032C115.529 35.2032 115.752 35.1475 115.938 35.1197C117.18 34.9065 118.34 34.4429 119.37 33.7939C119.574 33.6641 119.759 33.525 119.954 33.386C117.7 44.2519 108.072 52.4107 96.5046 52.4107H96.4861Z" fill="white"/>
</svg>
