<svg width="14" height="15" viewBox="0 0 14 15" fill="none" xmlns="http://www.w3.org/2000/svg">
<g clip-path="url(#clip0_260_131)">
<path d="M5.50824 0C6.80575 0 8.10366 0 9.40116 0C9.42601 0.01125 9.44962 0.0270833 9.47529 0.0333333C10.058 0.180833 10.4009 0.554583 10.4937 1.14958C10.5243 1.34458 10.5206 1.54458 10.533 1.75125C10.9749 1.75125 11.4023 1.74583 11.8293 1.7525C12.8236 1.76708 13.6896 2.41292 13.9157 3.38792C14.0188 3.83167 13.9861 4.30917 13.9998 4.77167C14.0097 5.11083 13.8341 5.27417 13.4904 5.27875C13.362 5.28042 13.2336 5.27875 13.1003 5.27875C13.0398 5.92917 12.9797 6.54875 12.9247 7.16875C12.8365 8.1625 12.7524 9.15667 12.6638 10.1504C12.5714 11.1854 12.4786 12.2204 12.3801 13.255C12.3531 13.5363 12.3366 13.825 12.2591 14.0942C12.1117 14.6088 11.7195 14.8725 11.223 15H3.68603C3.66159 14.9883 3.63799 14.9725 3.6119 14.9658C3.03707 14.8233 2.68215 14.4621 2.59933 13.8725C2.52685 13.3588 2.49124 12.8396 2.44485 12.3225C2.35623 11.3354 2.27298 10.3479 2.18519 9.36042C2.092 8.31167 1.99675 7.26292 1.90067 6.21417C1.87251 5.90625 1.83896 5.59875 1.80666 5.27667C1.64556 5.27667 1.50061 5.28417 1.35691 5.275C1.05831 5.25625 0.911292 5.09625 0.908807 4.79292C0.906322 4.49458 0.903423 4.19625 0.908807 3.89792C0.919574 3.29208 1.15315 2.78292 1.58468 2.36458C2.01249 1.94958 2.53348 1.76292 3.1199 1.75292C3.53818 1.74583 3.95646 1.75167 4.3909 1.75167C4.3909 1.63833 4.37847 1.5475 4.39338 1.46125C4.43562 1.21833 4.45592 0.964167 4.54578 0.73875C4.71558 0.312083 5.08914 0.117917 5.50783 0.000416667L5.50824 0ZM2.68961 5.29208C2.71736 5.55333 2.74676 5.79958 2.76912 6.04625C2.89502 7.44083 3.02051 8.83583 3.14351 10.2304C3.24414 11.37 3.34064 12.51 3.44044 13.65C3.46695 13.9533 3.64089 14.1242 3.93534 14.1242C6.27482 14.1254 8.61471 14.125 10.9542 14.1229C11.2764 14.1229 11.4383 13.9725 11.4677 13.6496C11.58 12.4279 11.6893 11.2058 11.7986 9.98375C11.9071 8.76792 12.014 7.55208 12.1216 6.33625C12.1519 5.99292 12.1829 5.65 12.2148 5.29208H2.68961ZM1.78927 4.37542H13.1284C13.1284 4.27375 13.1284 4.18417 13.1284 4.09458C13.128 3.17833 12.5909 2.63167 11.6756 2.63125C8.83255 2.62958 5.98989 2.63125 3.14682 2.635C2.66932 2.63583 2.27713 2.825 2.00048 3.225C1.76111 3.57125 1.76111 3.96583 1.78927 4.37583V4.37542ZM5.27426 1.73583H9.64426C9.64426 1.6525 9.64426 1.58375 9.64426 1.51542C9.64426 1.01167 9.50925 0.87625 9.00566 0.87625C8.02083 0.875833 7.03559 0.875417 6.05077 0.875C5.34176 0.875 5.22746 0.998333 5.27426 1.73625V1.73583Z" fill="white"/>
<path d="M7.0116 9.68745C7.0116 8.68078 7.01036 7.6737 7.01243 6.66703C7.01326 6.34411 7.17974 6.15953 7.45929 6.1587C7.66511 6.15786 7.83077 6.28578 7.87301 6.49245C7.89248 6.58661 7.89579 6.68495 7.89579 6.78161C7.89703 8.73286 7.89662 10.6841 7.89662 12.6349C7.89662 13.022 7.73469 13.2479 7.45929 13.2466C7.16483 13.2454 7.0116 13.0329 7.0116 12.6245C7.0116 11.6454 7.0116 10.6666 7.0116 9.68745Z" fill="white"/>
<path d="M9.28439 12.6038C9.36266 10.9263 9.44094 9.24883 9.5188 7.57133C9.5337 7.25258 9.54447 6.93342 9.55897 6.61467C9.57222 6.32758 9.74699 6.153 10.0125 6.15883C10.2676 6.16425 10.444 6.35758 10.4328 6.64633C10.393 7.65175 10.3483 8.65717 10.3019 9.66217C10.2551 10.6809 10.2038 11.6997 10.1545 12.7184C10.1383 13.0547 9.96234 13.2609 9.70143 13.2472C9.43348 13.233 9.27652 13.0243 9.27984 12.6868C9.27984 12.6588 9.27984 12.6313 9.27984 12.6034C9.28108 12.6034 9.28274 12.6034 9.28398 12.6034L9.28439 12.6038Z" fill="white"/>
<path d="M5.63559 12.6674C5.62937 12.7499 5.63434 12.8358 5.61405 12.9149C5.56063 13.1229 5.34403 13.2699 5.14524 13.2445C4.93652 13.2179 4.76796 13.0429 4.7572 12.8224C4.71412 11.9283 4.67644 11.0341 4.63544 10.1399C4.58657 9.07952 4.53604 8.0191 4.48676 6.9591C4.48138 6.84119 4.47227 6.72327 4.47517 6.60535C4.48096 6.3466 4.65407 6.16744 4.89717 6.15994C5.15518 6.15202 5.33326 6.31994 5.3461 6.59577C5.40201 7.79494 5.45461 8.99369 5.50969 10.1929C5.54737 11.0174 5.58672 11.8424 5.62565 12.667C5.62896 12.667 5.63227 12.6674 5.63559 12.6674Z" fill="white"/>
</g>
<defs>
<clipPath id="clip0_260_131">
<rect width="14" height="15" fill="white"/>
</clipPath>
</defs>
</svg>
