<svg width="32" height="29" viewBox="0 0 32 29" fill="none" xmlns="http://www.w3.org/2000/svg">
<path d="M28.6299 19.4816C28.9709 19.2248 29.0277 18.9395 29.0764 18.6868L29.0967 18.5889C29.5636 16.4653 29.9127 14.2601 30.2537 12.1283C30.5663 10.1514 30.8911 8.10931 31.3051 6.14871L31.3133 6.08757C31.3539 5.37017 30.9276 4.86474 30.1888 4.79952H7.64613L6.59877 0.800881L6.58254 0.747892C6.31461 0.0957183 5.67726 0.0468053 5.47022 0.034577C4.69079 -0.0224882 3.86264 0.00196831 3.06697 0.0305009C2.41745 0.0508814 1.74356 0.0753379 1.11433 0.0468053H1.0778H1.04126C0.45263 0.132403 0.0344979 0.57262 0.00202156 1.14327C-0.0304548 1.72208 0.330843 2.21121 0.907297 2.3661L0.968191 2.37833C1.55682 2.43947 2.19011 2.41094 2.80716 2.37833C3.43639 2.34979 4.02908 2.32126 4.56088 2.3824C4.57306 2.3824 4.58118 2.3824 4.59742 2.40278L9.546 21.7968L9.59065 21.9069C9.7368 22.1514 9.95195 22.3185 10.2077 22.3838L10.2564 22.396L29.4012 22.4245H29.4418L29.4824 22.4164C30.1035 22.2941 30.4973 21.7805 30.4445 21.165C30.3958 20.627 29.9655 20.0726 29.2307 20.0604H11.5108C11.4743 19.9666 11.4296 19.8199 11.385 19.6854H28.1712C28.2199 19.6854 28.3498 19.6854 28.634 19.4694L28.6299 19.4816ZM26.9208 17.3376L10.7882 17.3131C10.7598 17.2112 10.7314 17.1012 10.7192 17.0482L10.6908 16.9463C10.2158 15.2384 9.79363 13.4775 9.37956 11.7778C9.01014 10.2574 8.6326 8.68403 8.22259 7.17181L28.7395 7.19626L26.9208 17.3416V17.3376Z" fill="white"/>
<path d="M26.2104 22.4734C24.9641 22.5713 24.0264 23.2031 23.5758 24.2547C23.0886 25.3878 23.2835 26.7982 24.0548 27.7601C24.6272 28.4694 25.4188 28.8444 26.3281 28.8444C26.5595 28.8444 26.7991 28.8199 27.0426 28.771C29.0359 28.3797 29.73 26.6514 29.5352 25.2166C29.3403 23.7859 28.2158 22.3145 26.2064 22.4734H26.2104ZM26.7666 26.4762C26.3931 26.6188 26.0886 26.5781 25.8613 26.3539C25.5934 26.0889 25.4919 25.6161 25.6258 25.2492C25.7354 24.9435 25.9912 24.7683 26.3647 24.7397C26.933 24.6949 27.2253 25.0984 27.3024 25.4571C27.3796 25.8036 27.2862 26.2805 26.7666 26.4802V26.4762Z" fill="white"/>
<path d="M12.408 22.4734C10.3254 22.6365 9.45262 24.3077 9.52163 25.7873C9.59064 27.3117 10.6827 28.8362 12.6353 28.8362C12.6556 28.8362 12.6759 28.8362 12.6962 28.8362C13.9019 28.8158 14.8559 28.2574 15.3795 27.2628C15.9479 26.1908 15.8829 24.7886 15.2212 23.7778C14.6082 22.8403 13.6055 22.3797 12.408 22.4734ZM12.887 26.5169C12.5216 26.6107 12.2212 26.5373 12.0182 26.3009C11.7787 26.0237 11.7057 25.5713 11.8477 25.2248C11.9289 25.021 12.1197 24.7723 12.5622 24.7397C13.1752 24.6949 13.4594 25.1188 13.5203 25.4979C13.5893 25.9055 13.4188 26.3824 12.887 26.521V26.5169Z" fill="white"/>
</svg>
