<svg width="22" height="28" viewBox="0 0 22 28" fill="none" xmlns="http://www.w3.org/2000/svg">
<g clip-path="url(#clip0_5_38)">
<path d="M21.7775 24.599C21.5587 26.3829 19.7841 27.6316 18.1117 27.7415C13.577 28.0423 8.72543 27.5092 4.15803 27.7415C2.08286 27.586 0.29393 25.9162 0.549492 23.7029L2.00722 6.9613C2.08082 6.42406 2.18304 6.08595 2.77186 6.01335C3.7573 5.89096 4.94311 6.0901 5.949 6.00712C5.88767 3.86438 7.37402 1.81706 9.32855 1.09728C12.751 -0.16389 16.2962 2.35015 16.38 6.0092C17.3634 6.0818 18.4756 5.91171 19.4427 6.0092C20.3157 6.09839 20.2441 6.66882 20.3218 7.39482C20.8963 12.7071 21.3768 18.3201 21.7141 23.6531C21.7182 23.7319 21.7775 23.7921 21.7775 23.8025C21.7898 24.0244 21.8041 24.3916 21.7775 24.6031V24.599ZM14.9836 6.00712C14.8589 2.88532 11.4671 1.07654 8.89921 2.94132C7.95056 3.62999 7.31677 4.80818 7.3413 6.00712H14.9836ZM5.88767 7.42386H3.40156L2.00722 23.0308C2.00517 23.7589 1.78641 24.4081 2.16464 25.0864C2.61852 25.9016 3.57943 26.2688 4.45857 26.3269C8.85423 26.6173 13.5586 26.1049 17.9849 26.3227C19.1687 26.2086 20.2911 25.5034 20.3688 24.1986L18.9254 7.57736L18.8334 7.42386H16.378V9.85493C16.378 9.90471 16.2103 10.193 16.1592 10.249C15.8955 10.5394 15.415 10.5187 15.1635 10.2262C15.1308 10.1889 14.9816 9.93583 14.9816 9.91716V7.51721L14.8916 7.42386H7.3413V9.73255C7.3413 9.78026 7.18592 10.1847 7.14094 10.2366C6.73818 10.6971 5.88562 10.3714 5.88562 9.73255V7.42386H5.88767Z" fill="white"/>
</g>
<defs>
<clipPath id="clip0_5_38">
<rect width="21.2689" height="27.0695" fill="white" transform="translate(0.522644 0.767456)"/>
</clipPath>
</defs>
</svg>
