<svg width="294" height="62" viewBox="0 0 294 62" fill="none" xmlns="http://www.w3.org/2000/svg">
<path fill-rule="evenodd" clip-rule="evenodd" d="M0 30.74C0 13.75 13.75 0 30.71 0C47.7 0 61.45 13.78 61.45 30.74C61.45 47.7 47.67 61.48 30.71 61.48C13.75 61.48 0 47.73 0 30.74ZM55.42 23.25C52.21 12.65 42.38 4.92 30.71 4.92C19.07 4.92 9.24 12.65 6.03 23.25H20.87C20.99 23.25 21.07 23.25 21.19 23.28C21.51 23.28 21.8 23.31 22.12 23.37C25.38 23.92 27.95 26.63 28.24 30.01C28.27 30.22 28.15 30.42 27.95 30.51C27.75 30.59 27.55 30.54 27.4 30.39C26.06 29.03 24.17 28.18 22.13 28.18H6.1C6.1 30.91 8.31 33.1 11.02 33.1H19.64C19.9049 33.1 20.1448 33.125 20.4054 33.1522C20.4301 33.1548 20.4549 33.1574 20.48 33.16C22.72 33.33 24.79 34.15 26.45 35.49C27.38 36.19 28.2 37.06 28.84 38.05C28.9 38.1 28.96 38.16 28.99 38.25C29.51 39.07 29.95 40 30.24 40.96C30.3 41.19 30.51 41.34 30.71 41.34C30.95 41.34 31.15 41.19 31.21 40.96C31.5 40 31.94 39.07 32.46 38.25C32.49 38.17 32.55 38.11 32.61 38.05C33.25 37.06 34.07 36.19 35 35.49C36.66 34.15 38.73 33.33 40.97 33.16C41.0028 33.1567 41.0352 33.1534 41.0672 33.1502C41.3273 33.1238 41.5617 33.1 41.82 33.1H50.44C53.15 33.1 55.36 30.92 55.36 28.18H39.33C37.29 28.18 35.4 29.02 34.06 30.39C33.92 30.54 33.71 30.6 33.51 30.51C33.31 30.42 33.19 30.21 33.22 30.01C33.51 26.63 36.05 23.92 39.34 23.37C39.66 23.31 39.95 23.28 40.27 23.28C40.39 23.25 40.47 23.25 40.59 23.25H55.42ZM5.46 36.01C7.89 47.73 18.27 56.53 30.71 56.53H30.73C43.2 56.53 53.58 47.73 56.01 36.01C55.9621 36.0442 55.9147 36.0784 55.8675 36.1125C55.7077 36.2279 55.5498 36.3419 55.38 36.45C54.27 37.15 53.02 37.65 51.68 37.88C51.6238 37.8884 51.5645 37.8992 51.5031 37.9104C51.346 37.939 51.1754 37.97 51.01 37.97C50.63 38.03 50.22 38.06 49.84 38.06H44.92C41.27 38.06 37.98 39.54 35.65 41.96C33.3651 44.3233 32.4721 47.4168 31.5846 50.4909C31.4544 50.9418 31.3243 51.3923 31.19 51.84C31.13 52.04 30.96 52.19 30.72 52.19C30.48 52.19 30.31 52.04 30.25 51.84C30.1285 51.4195 30.0107 50.9974 29.8929 50.5755C29.0221 47.456 28.1543 44.3472 25.82 41.96C23.48 39.55 20.19 38.06 16.55 38.06H11.63C11.25 38.06 10.84 38.03 10.46 37.97C10.2946 37.97 10.124 37.939 9.96689 37.9104C9.90551 37.8992 9.84618 37.8884 9.79 37.88C8.45 37.64 7.2 37.15 6.09 36.45C5.93153 36.3564 5.78343 36.2471 5.6345 36.1373C5.57668 36.0947 5.51873 36.0519 5.46 36.01ZM108.49 30.72C108.49 21.59 115.64 14.82 125.33 14.82C135 14.82 142.17 21.54 142.17 30.72C142.17 39.9 135.03 46.62 125.33 46.62C115.63 46.62 108.49 39.85 108.49 30.72ZM115.72 30.72C115.72 36.56 119.83 40.56 125.33 40.56C130.83 40.56 134.97 36.56 134.97 30.72C134.97 24.88 130.83 20.88 125.33 20.88C119.83 20.88 115.72 24.88 115.72 30.72ZM78.28 15.36H91.6C99.82 15.36 104.95 19.64 104.95 26.5C104.95 33.36 99.82 37.64 91.6 37.64H85.39V46.12H78.28V15.36ZM85.39 31.83H91.2C95.54 31.83 97.75 29.88 97.75 26.5C97.75 23.12 95.54 21.14 91.2 21.14H85.39V31.83ZM152.85 15.36H145.74V46.12H168.27V40.31H152.85V15.36ZM171.87 30.72C171.87 21.59 178.99 14.82 188.68 14.82C198.35 14.82 205.52 21.54 205.52 30.72C205.52 39.9 198.38 46.62 188.68 46.62C178.98 46.62 171.87 39.85 171.87 30.72ZM179.07 30.72C179.07 36.56 183.21 40.56 188.68 40.56C194.18 40.56 198.32 36.56 198.32 30.72C198.32 24.88 194.15 20.88 188.68 20.88C183.21 20.88 179.07 24.88 179.07 30.72ZM232.9 34.01L217.63 15.36H211.73V46.12H218.76V27.44L234.1 46.12H239.93V15.36H232.9V34.01ZM246.14 15.36H253.25V46.12H246.14V15.36ZM280.19 15.36H273.16L259.47 46.12H266.76L269.48 39.52H283.77L286.49 46.12H293.95L280.2 15.36H280.19ZM271.77 34.13L276.65 22.34L281.53 34.13H271.78H271.77Z" fill="white"/>
</svg>
