<svg width="23" height="20" viewBox="0 0 23 20" fill="none" xmlns="http://www.w3.org/2000/svg">
<path d="M22.4874 17.6925L17.233 13.7225C18.073 12.3597 18.5571 10.7649 18.5571 9.06114C18.5581 4.06452 14.3951 0 9.27855 0C4.16205 0 0 4.06452 0 9.06114C0 14.0578 4.16205 18.1223 9.27855 18.1223C11.7009 18.1223 13.909 17.2102 15.5637 15.7204L20.8719 19.7305C21.4488 20.166 22.2781 20.0629 22.724 19.4994C23.17 18.9359 23.0644 18.1261 22.4874 17.6906V17.6925ZM9.27855 15.5447C5.61818 15.5447 2.6404 12.6367 2.6404 9.06209C2.6404 5.48749 5.61818 2.57853 9.27855 2.57853C12.9389 2.57853 15.9167 5.48653 15.9167 9.06114C15.9167 12.6357 12.9389 15.5437 9.27855 15.5437V15.5447Z" fill="#0C0C0C"/>
</svg>
