<svg width="14" height="15" viewBox="0 0 14 15" fill="none" xmlns="http://www.w3.org/2000/svg">
<g clip-path="url(#clip0_291_354)">
<path d="M5.508 0C6.8055 0 8.10342 0 9.40092 0C9.42577 0.01125 9.44937 0.0270833 9.47505 0.0333333C10.0577 0.180833 10.4007 0.554583 10.4934 1.14958C10.5241 1.34458 10.5203 1.54458 10.5328 1.75125C10.9746 1.75125 11.402 1.74583 11.829 1.7525C12.8234 1.76708 13.6893 2.41292 13.9155 3.38792C14.0186 3.83167 13.9859 4.30917 13.9995 4.77167C14.0095 5.11083 13.8339 5.27417 13.4901 5.27875C13.3618 5.28042 13.2334 5.27875 13.1 5.27875C13.0395 5.92917 12.9795 6.54875 12.9244 7.16875C12.8362 8.1625 12.7521 9.15667 12.6635 10.1504C12.5712 11.1854 12.4784 12.2204 12.3798 13.255C12.3529 13.5363 12.3363 13.825 12.2589 14.0942C12.1115 14.6088 11.7193 14.8725 11.2227 15H3.68579C3.66135 14.9883 3.63774 14.9725 3.61165 14.9658C3.03683 14.8233 2.68191 14.4621 2.59908 13.8725C2.52661 13.3588 2.49099 12.8396 2.44461 12.3225C2.35598 11.3354 2.27274 10.3479 2.18494 9.36042C2.09176 8.31167 1.99651 7.26292 1.90043 6.21417C1.87227 5.90625 1.83872 5.59875 1.80642 5.27667C1.64532 5.27667 1.50037 5.28417 1.35666 5.275C1.05807 5.25625 0.911047 5.09625 0.908563 4.79292C0.906078 4.49458 0.903179 4.19625 0.908563 3.89792C0.91933 3.29208 1.15291 2.78292 1.58444 2.36458C2.01225 1.94958 2.53323 1.76292 3.11966 1.75292C3.53794 1.74583 3.95622 1.75167 4.39065 1.75167C4.39065 1.63833 4.37823 1.5475 4.39314 1.46125C4.43538 1.21833 4.45567 0.964167 4.54554 0.73875C4.71534 0.312083 5.08889 0.117917 5.50759 0.000416667L5.508 0ZM2.68936 5.29208C2.71711 5.55333 2.74652 5.79958 2.76888 6.04625C2.89478 7.44083 3.02026 8.83583 3.14326 10.2304C3.2439 11.37 3.34039 12.51 3.4402 13.65C3.46671 13.9533 3.64064 14.1242 3.9351 14.1242C6.27457 14.1254 8.61446 14.125 10.9539 14.1229C11.2761 14.1229 11.4381 13.9725 11.4675 13.6496C11.5797 12.4279 11.689 11.2058 11.7984 9.98375C11.9069 8.76792 12.0137 7.55208 12.1214 6.33625C12.1516 5.99292 12.1827 5.65 12.2146 5.29208H2.68936ZM1.78902 4.37542H13.1282C13.1282 4.27375 13.1282 4.18417 13.1282 4.09458C13.1278 3.17833 12.5906 2.63167 11.6754 2.63125C8.8323 2.62958 5.98965 2.63125 3.14657 2.635C2.66907 2.63583 2.27688 2.825 2.00024 3.225C1.76086 3.57125 1.76086 3.96583 1.78902 4.37583V4.37542ZM5.27401 1.73583H9.64402C9.64402 1.6525 9.64402 1.58375 9.64402 1.51542C9.64402 1.01167 9.50901 0.87625 9.00541 0.87625C8.02059 0.875833 7.03535 0.875417 6.05052 0.875C5.34152 0.875 5.22721 0.998333 5.27401 1.73625V1.73583Z" fill="black"/>
<path d="M7.01184 9.68751C7.01184 8.68084 7.0106 7.67376 7.01267 6.66709C7.0135 6.34417 7.17998 6.15959 7.45953 6.15876C7.66536 6.15792 7.83101 6.28584 7.87326 6.49251C7.89272 6.58667 7.89603 6.68501 7.89603 6.78167C7.89728 8.73292 7.89686 10.6842 7.89686 12.635C7.89686 13.0221 7.73493 13.2479 7.45953 13.2467C7.16508 13.2454 7.01184 13.0329 7.01184 12.6246C7.01184 11.6454 7.01184 10.6667 7.01184 9.68751Z" fill="black"/>
<path d="M9.28464 12.6037C9.36291 10.9262 9.44118 9.24874 9.51904 7.57124C9.53395 7.25249 9.54472 6.93333 9.55921 6.61458C9.57246 6.32749 9.74723 6.15291 10.0127 6.15874C10.2678 6.16416 10.4442 6.35749 10.433 6.64624C10.3933 7.65166 10.3486 8.65708 10.3022 9.66208C10.2554 10.6808 10.204 11.6996 10.1547 12.7183C10.1386 13.0546 9.96258 13.2608 9.70167 13.2471C9.43373 13.2329 9.27677 13.0242 9.28008 12.6867C9.28008 12.6587 9.28008 12.6312 9.28008 12.6033C9.28132 12.6033 9.28298 12.6033 9.28422 12.6033L9.28464 12.6037Z" fill="black"/>
<path d="M5.63559 12.6675C5.62937 12.75 5.63434 12.8358 5.61405 12.915C5.56063 13.1229 5.34403 13.27 5.14524 13.2446C4.93652 13.2179 4.76796 13.0429 4.7572 12.8225C4.71412 11.9283 4.67644 11.0342 4.63544 10.14C4.58657 9.07958 4.53604 8.01916 4.48676 6.95916C4.48138 6.84125 4.47227 6.72333 4.47517 6.60541C4.48096 6.34666 4.65407 6.1675 4.89717 6.16C5.15518 6.15208 5.33326 6.32 5.3461 6.59583C5.40201 7.795 5.45461 8.99375 5.50969 10.1929C5.54737 11.0175 5.58672 11.8425 5.62565 12.6671C5.62896 12.6671 5.63227 12.6675 5.63559 12.6675Z" fill="black"/>
</g>
<defs>
<clipPath id="clip0_291_354">
<rect width="14" height="15" fill="white"/>
</clipPath>
</defs>
</svg>
