<svg width="28" height="30" viewBox="0 0 28 30" fill="none" xmlns="http://www.w3.org/2000/svg">
<path d="M25.4215 20.9948C23.412 17.6158 20.14 15.3128 16.3525 14.575C18.0088 13.9473 19.4093 12.7408 20.2659 11.1755C21.6137 8.70951 21.5162 5.83179 20.0061 3.47581C18.4797 1.09945 15.8897 -0.192666 13.0683 0.0233671C10.3444 0.231247 8.03044 1.86168 6.87347 4.39293C5.71244 6.93233 5.98849 9.77744 7.61636 11.9989C8.48104 13.1769 9.67049 14.0777 11.0223 14.5872C7.12516 15.3454 3.8004 17.738 1.8031 21.2557C0.544645 23.4731 -0.060227 26.0003 0.00472568 28.7639L0.0209638 29.359H27.3782V28.7516C27.4107 25.8372 26.753 23.2285 25.4215 20.9908V20.9948ZM8.55006 18.2965C11.8302 16.5601 15.7273 16.6049 18.975 18.4187C22.0399 20.1307 24.1184 23.2041 24.569 26.6728H2.80987C3.22394 23.2041 5.45669 19.9351 8.55006 18.3005V18.2965ZM13.5392 12.3454C11.7084 12.2924 10.1495 11.2856 9.37008 9.65516C8.67184 8.19185 8.74492 6.47989 9.569 5.07771C10.3971 3.67146 11.7977 2.81141 13.4134 2.71766C15.1915 2.61576 16.7787 3.45543 17.7327 4.97581C18.6827 6.49212 18.7395 8.32636 17.887 9.87935C17.0061 11.4812 15.366 12.4106 13.5352 12.3495L13.5392 12.3454Z" fill="white"/>
</svg>
