<svg width="24" height="24" viewBox="0 0 24 24" fill="none" xmlns="http://www.w3.org/2000/svg">
<path fill-rule="evenodd" clip-rule="evenodd" d="M12.2811 0.146503C17.9081 0.440449 22.7085 5.16367 23.0153 10.7669L23.0135 10.7651C23.5095 19.8482 14.0814 25.7709 6.01102 21.5826L0 23.1619L1.59277 17.2885C-2.86773 9.3209 3.07532 -0.337321 12.2811 0.146503ZM6.33987 19.5195C11.526 22.7968 18.5273 20.4781 20.5536 14.7014V14.6996C23.0631 7.54627 16.6222 0.537214 9.23331 2.34653C2.79424 3.92398 -0.0496017 11.5209 3.69443 16.9525L2.75015 20.4306L6.33987 19.5195ZM14.9751 13.0605C14.9962 13.0691 15.0168 13.0775 15.0367 13.0854L15.033 13.0835C15.4623 13.2523 15.8751 13.4675 16.2874 13.6825C16.602 13.8465 16.9163 14.0104 17.2375 14.1534C17.4176 14.2958 17.3808 14.6646 17.3588 14.8837C17.1677 16.8117 14.9724 17.2791 13.3723 16.8446C10.9087 16.1764 8.95035 14.6281 7.40718 12.6563C6.36921 11.329 5.34961 9.77528 5.85849 8.00978C6.01281 7.47301 6.67784 6.39582 7.26939 6.2954C7.4531 6.26436 8.13651 6.25523 8.29817 6.30453C8.37717 6.33009 8.48556 6.43416 8.537 6.49989C8.74092 6.75366 9.45923 8.51917 9.58782 8.90805C9.68887 9.2166 9.64845 9.28963 9.49413 9.55984C9.41328 9.70089 9.26073 9.87477 9.1108 10.0457C8.94051 10.2398 8.77358 10.43 8.71887 10.564C8.61644 10.8128 8.88382 11.1875 9.06128 11.4362C9.08433 11.4685 9.10586 11.4987 9.12487 11.5262C9.92953 12.6965 11.1126 13.6806 12.428 14.2374C12.4657 14.2532 12.5043 14.2708 12.5436 14.2888C12.7687 14.3917 13.0149 14.5043 13.2198 14.3178L14.2761 13.0178C14.4772 12.858 14.7562 12.9715 14.9751 13.0605Z" fill="white"/>
</svg>
