<svg width="62" height="62" viewBox="0 0 62 62" fill="none" xmlns="http://www.w3.org/2000/svg">
<path fill-rule="evenodd" clip-rule="evenodd" d="M30.71 0C13.75 0 0 13.75 0 30.74C0 47.73 13.75 61.48 30.71 61.48C47.67 61.48 61.45 47.7 61.45 30.74C61.45 13.78 47.7 0 30.71 0ZM30.71 4.92C42.38 4.92 52.21 12.65 55.42 23.25H40.59C40.47 23.25 40.39 23.25 40.27 23.28C39.95 23.28 39.66 23.31 39.34 23.37C36.05 23.92 33.51 26.63 33.22 30.01C33.19 30.21 33.31 30.42 33.51 30.51C33.71 30.6 33.92 30.54 34.06 30.39C35.4 29.02 37.29 28.18 39.33 28.18H55.36C55.36 30.92 53.15 33.1 50.44 33.1H41.82C41.53 33.1 41.27 33.13 40.97 33.16C38.73 33.33 36.66 34.15 35 35.49C34.07 36.19 33.25 37.06 32.61 38.05C32.55 38.11 32.49 38.17 32.46 38.25C31.94 39.07 31.5 40 31.21 40.96C31.15 41.19 30.95 41.34 30.71 41.34C30.51 41.34 30.3 41.19 30.24 40.96C29.95 40 29.51 39.07 28.99 38.25C28.96 38.16 28.9 38.1 28.84 38.05C28.2 37.06 27.38 36.19 26.45 35.49C24.79 34.15 22.72 33.33 20.48 33.16C20.19 33.13 19.93 33.1 19.64 33.1H11.02C8.31 33.1 6.1 30.91 6.1 28.18H22.13C24.17 28.18 26.06 29.03 27.4 30.39C27.55 30.54 27.75 30.59 27.95 30.51C28.15 30.42 28.27 30.22 28.24 30.01C27.95 26.63 25.38 23.92 22.12 23.37C21.8 23.31 21.51 23.28 21.19 23.28C21.07 23.25 20.99 23.25 20.87 23.25H6.03C9.24 12.65 19.07 4.92 30.71 4.92ZM30.71 56.53C18.27 56.53 7.89 47.73 5.46 36.01C5.67 36.16 5.87 36.32 6.09 36.45C7.2 37.15 8.45 37.64 9.79 37.88C9.99 37.91 10.23 37.97 10.46 37.97C10.84 38.03 11.25 38.06 11.63 38.06H16.55C20.19 38.06 23.48 39.55 25.82 41.96C28.47 44.67 29.23 48.31 30.25 51.84C30.31 52.04 30.48 52.19 30.72 52.19C30.96 52.19 31.13 52.04 31.19 51.84C32.24 48.34 33.03 44.67 35.65 41.96C37.98 39.54 41.27 38.06 44.92 38.06H49.84C50.22 38.06 50.63 38.03 51.01 37.97C51.24 37.97 51.48 37.91 51.68 37.88C53.02 37.65 54.27 37.15 55.38 36.45C55.6 36.31 55.8 36.16 56.01 36.01C53.58 47.73 43.2 56.53 30.73 56.53H30.71Z" fill="#E81B24"/>
</svg>
