<svg width="182" height="38" viewBox="0 0 182 38" fill="none" xmlns="http://www.w3.org/2000/svg">
<path fill-rule="evenodd" clip-rule="evenodd" d="M0 19C0 8.4987 8.4987 0 18.9815 0C29.4828 0 37.9815 8.51724 37.9815 19C37.9815 29.4828 29.4642 38 18.9815 38C8.4987 38 0 29.5013 0 19ZM34.2544 14.3705C32.2703 7.8188 26.1945 3.04099 18.9815 3.04099C11.7869 3.04099 5.71113 7.8188 3.72707 14.3705H12.8995C12.9737 14.3705 13.0231 14.3705 13.0973 14.3891C13.2951 14.3891 13.4743 14.4076 13.6721 14.4447C15.6871 14.7846 17.2755 16.4597 17.4548 18.5488C17.4733 18.6786 17.3992 18.8022 17.2755 18.8578C17.1519 18.9073 17.0283 18.8764 16.9356 18.7837C16.1074 17.9431 14.9392 17.4177 13.6783 17.4177H3.77033C3.77033 19.1051 5.13631 20.4587 6.81132 20.4587H12.1392C12.303 20.4587 12.4513 20.4742 12.6124 20.491C12.6276 20.4926 12.643 20.4942 12.6584 20.4958C14.0429 20.6009 15.3224 21.1077 16.3484 21.9359C16.9232 22.3686 17.4301 22.9063 17.8256 23.5182C17.8627 23.5491 17.8998 23.5862 17.9184 23.6418C18.2398 24.1487 18.5117 24.7235 18.691 25.3169C18.728 25.459 18.8578 25.5517 18.9815 25.5517C19.1298 25.5517 19.2534 25.459 19.2905 25.3169C19.4698 24.7235 19.7417 24.1487 20.0631 23.6418C20.0817 23.5924 20.1187 23.5553 20.1558 23.5182L20.1558 23.5182C20.5514 22.9063 21.0582 22.3686 21.6331 21.9359C22.6591 21.1077 23.9385 20.6009 25.323 20.4958C25.3433 20.4937 25.3633 20.4917 25.3831 20.4897C25.5438 20.4734 25.6888 20.4587 25.8484 20.4587H31.1763C32.8513 20.4587 34.2173 19.1113 34.2173 17.4177H24.3094C23.0485 17.4177 21.8803 17.9369 21.0521 18.7837C20.9655 18.8764 20.8357 18.9135 20.7121 18.8578C20.5885 18.8022 20.5143 18.6724 20.5329 18.5488C20.7121 16.4597 22.282 14.7846 24.3156 14.4447C24.5133 14.4076 24.6926 14.3891 24.8904 14.3891C24.9645 14.3705 25.014 14.3705 25.0882 14.3705H34.2544ZM3.37476 22.2573C4.87671 29.5013 11.2925 34.9405 18.9815 34.9405H18.9938C26.7014 34.9405 33.1171 29.5013 34.6191 22.2573C34.5895 22.2785 34.5602 22.2996 34.531 22.3207C34.4322 22.392 34.3346 22.4625 34.2297 22.5293C33.5436 22.9619 32.771 23.271 31.9428 23.4131C31.908 23.4184 31.8714 23.425 31.8334 23.4319C31.7363 23.4496 31.6309 23.4688 31.5286 23.4688C31.2938 23.5059 31.0403 23.5244 30.8055 23.5244H27.7645C25.5085 23.5244 23.475 24.4392 22.0348 25.9349C20.6226 27.3957 20.0706 29.3077 19.522 31.2078C19.4416 31.4865 19.3612 31.7649 19.2781 32.0416C19.2411 32.1653 19.136 32.258 18.9876 32.258C18.8393 32.258 18.7342 32.1653 18.6971 32.0416C18.622 31.7817 18.5492 31.5208 18.4764 31.2601C17.9382 29.3319 17.4018 27.4104 15.959 25.9349C14.5127 24.4454 12.4792 23.5244 10.2293 23.5244H7.18836C6.95348 23.5244 6.70007 23.5059 6.46519 23.4688C6.36296 23.4688 6.25753 23.4496 6.1604 23.4319C6.12246 23.425 6.08579 23.4184 6.05107 23.4131C5.22284 23.2648 4.45023 22.9619 3.76415 22.5293C3.6662 22.4714 3.57466 22.4039 3.48261 22.336C3.44687 22.3097 3.41105 22.2833 3.37476 22.2573ZM67.0563 18.9876C67.0563 13.3445 71.4756 9.16001 77.4649 9.16001C83.4418 9.16001 87.8735 13.3136 87.8735 18.9876C87.8735 24.6616 83.4603 28.8152 77.4649 28.8152C71.4694 28.8152 67.0563 24.6307 67.0563 18.9876ZM71.5251 18.9876C71.5251 22.5972 74.0654 25.0696 77.4649 25.0696C80.8644 25.0696 83.4232 22.5972 83.4232 18.9876C83.4232 15.378 80.8644 12.9056 77.4649 12.9056C74.0654 12.9056 71.5251 15.378 71.5251 18.9876ZM48.3839 9.49378H56.6168C61.6975 9.49378 64.8683 12.1392 64.8683 16.3793C64.8683 20.6194 61.6975 23.2648 56.6168 23.2648H52.7785V28.5061H48.3839V9.49378ZM52.7785 19.6737H56.3696C59.0521 19.6737 60.418 18.4684 60.418 16.3793C60.418 14.2901 59.0521 13.0663 56.3696 13.0663H52.7785V19.6737ZM94.4746 9.49378H90.08V28.5061H104.006V24.9151H94.4746V9.49378ZM106.231 18.9876C106.231 13.3445 110.631 9.16001 116.621 9.16001C122.598 9.16001 127.029 13.3136 127.029 18.9876C127.029 24.6616 122.616 28.8152 116.621 28.8152C110.625 28.8152 106.231 24.6307 106.231 18.9876ZM110.681 18.9876C110.681 22.5972 113.24 25.0696 116.621 25.0696C120.02 25.0696 122.579 22.5972 122.579 18.9876C122.579 15.378 120.002 12.9056 116.621 12.9056C113.24 12.9056 110.681 15.378 110.681 18.9876ZM143.953 21.0211L134.514 9.49378H130.868V28.5061H135.213V16.9603L144.694 28.5061H148.298V9.49378H143.953V21.0211ZM152.136 9.49378H156.531V28.5061H152.136V9.49378ZM173.182 9.49378H168.837L160.375 28.5061H164.881L166.562 24.4268H175.395L177.076 28.5061H181.687L173.188 9.49378H173.182ZM167.978 21.0953L170.994 13.808L174.01 21.0953H167.984H167.978Z" fill="white"/>
</svg>
